<?xml version="1.0" encoding="utf-8"?>
<!-- Generator: Adobe Illustrator 22.1.0, SVG Export Plug-In . SVG Version: 6.00 Build 0)  -->
<svg version="1.1" id="Layer_1" xmlns="http://www.w3.org/2000/svg" xmlns:xlink="http://www.w3.org/1999/xlink" x="0px" y="0px"
	 viewBox="0 0 177.3 52.1" style="enable-background:new 0 0 177.3 52.1;" xml:space="preserve">
<style type="text/css">
	.st0{fill:#011E41;}
	.st1{fill:#0082CA;}
</style>
<polygon class="st0" points="36.8,1.3 28.9,0 29.6,4.4 "/>
<polygon class="st1" points="39.8,8.1 35.8,10 21.5,8 36.8,1.3 "/>
<polygon class="st0" points="21.5,8 41,10.8 27.1,18 20.5,17.6 "/>
<polygon class="st1" points="44.7,19 38.4,22.7 20,21.6 41,10.8 "/>
<polygon class="st0" points="20,21.6 46.5,23.2 29.5,33.7 18.7,34.2 "/>
<polygon class="st1" points="50.8,32.8 46.5,23.2 0,52.1 28,49.2 "/>
<path class="st0" d="M64.9,11.6c-0.5,0-1,0.1-1.5,0.3c-0.4,0.2-0.8,0.4-1.1,0.8v10.5h-4.1V3.2h4.1v6.7c0.4-0.4,1-0.7,1.6-0.9
	c0.6-0.2,1.3-0.3,2.1-0.3c1.8,0,3.2,0.6,4.2,1.7s1.5,2.8,1.5,5v7.8h-4.1v-7.8c0-1.3-0.2-2.3-0.7-2.9C66.5,11.9,65.8,11.6,64.9,11.6z
	"/>
<path class="st0" d="M74.8,9h4.1v14.1h-4.1V9z M74.5,5.3c0-0.7,0.2-1.2,0.5-1.5c0.4-0.3,0.9-0.5,1.8-0.5s1.4,0.2,1.8,0.5
	c0.4,0.3,0.5,0.9,0.5,1.5c0,0.7-0.2,1.2-0.5,1.5c-0.3,0.3-0.9,0.5-1.8,0.5s-1.4-0.2-1.8-0.5C74.7,6.5,74.5,6,74.5,5.3z"/>
<path class="st0" d="M85.4,15.9c0,1.5,0.3,2.5,0.9,3.3c0.6,0.7,1.3,1.1,2.2,1.1c0.5,0,1-0.1,1.4-0.3c0.5-0.2,0.8-0.4,1.1-0.8v-6.5
	c-0.3-0.3-0.7-0.6-1.1-0.8c-0.4-0.2-0.9-0.3-1.4-0.3c-0.9,0-1.6,0.3-2.2,1.1C85.7,13.4,85.4,14.5,85.4,15.9z M81.3,15.9
	c0-1.1,0.2-2.1,0.5-3c0.3-0.9,0.8-1.7,1.3-2.3c0.6-0.6,1.2-1.1,2-1.4c0.7-0.3,1.6-0.5,2.4-0.5c0.7,0,1.4,0.1,2,0.3
	c0.6,0.2,1.1,0.5,1.5,0.9V9h4.1v12.8c0,1.2-0.1,2.2-0.4,3.1c-0.3,0.8-0.7,1.6-1.3,2.1c-0.6,0.5-1.4,0.9-2.3,1.2s-2.1,0.4-3.4,0.4
	c-0.9,0-1.8-0.1-2.6-0.2c-0.8-0.2-1.6-0.4-2.3-0.8l0.2-3.2c0.6,0.4,1.3,0.8,2.1,1c0.8,0.2,1.6,0.3,2.4,0.3c1.1,0,2-0.2,2.6-0.7
	c0.7-0.5,1-1.3,1-2.5v-0.6c-0.4,0.4-0.9,0.7-1.5,0.9c-0.6,0.2-1.3,0.3-2,0.3c-0.9,0-1.7-0.2-2.4-0.5c-0.8-0.3-1.4-0.8-2-1.4
	c-0.6-0.6-1-1.4-1.4-2.3C81.5,18,81.3,17,81.3,15.9z"/>
<path class="st0" d="M104.9,11.6c-0.5,0-1,0.1-1.5,0.3c-0.4,0.2-0.8,0.4-1.1,0.8v10.5h-4.1V3.2h4.1v6.7c0.4-0.4,1-0.7,1.6-0.9
	c0.6-0.2,1.3-0.3,2.1-0.3c1.8,0,3.2,0.6,4.3,1.7c1,1.1,1.5,2.8,1.5,5v7.8h-4.1v-7.8c0-1.3-0.2-2.3-0.7-2.9
	C106.6,11.9,105.9,11.6,104.9,11.6z"/>
<polygon class="st0" points="125.9,9 128.5,18.4 131.1,9 135.2,9 130.6,23.2 126.5,23.2 124.1,14.1 121.7,23.2 117.5,23.2 112.9,9 
	117,9 119.7,18.4 122.2,9 125.9,9 "/>
<path class="st0" d="M142,20.7c0.6,0,1.1-0.1,1.6-0.3c0.5-0.2,1-0.5,1.3-0.9v-2.6h-2.5c-0.9,0-1.6,0.2-2,0.5
	c-0.4,0.4-0.6,0.8-0.6,1.5c0,0.6,0.2,1.1,0.6,1.4C140.8,20.5,141.3,20.7,142,20.7z M141,23.5c-0.7,0-1.4-0.1-2-0.3
	c-0.6-0.2-1.2-0.5-1.7-0.9c-0.5-0.4-0.8-0.9-1.1-1.4s-0.4-1.2-0.4-1.9c0-1.5,0.5-2.7,1.7-3.5c1.1-0.9,2.7-1.3,4.9-1.3h2.6v-0.6
	c0-0.7-0.2-1.2-0.6-1.4s-1.1-0.4-2.1-0.4c-0.9,0-1.7,0.1-2.6,0.3c-0.8,0.2-1.6,0.5-2.3,0.9L137,10c0.7-0.4,1.6-0.7,2.6-0.9
	c1-0.2,2-0.3,3.1-0.3c2.2,0,3.8,0.4,4.8,1.2c1,0.8,1.5,2.2,1.5,4.2v9.1h-4.1v-0.9c-0.6,0.4-1.2,0.8-1.8,1
	C142.6,23.4,141.9,23.5,141,23.5z"/>
<polygon class="st0" points="155.7,23.1 150,9 154.3,9 157.6,18.4 161,9 165.2,9 158,28.4 153.7,28.4 "/>
<path class="st0" d="M171.4,23.5c-1,0-1.9-0.1-2.8-0.3c-0.9-0.2-1.7-0.5-2.5-0.8l0.2-3.3c0.7,0.5,1.4,0.8,2.2,1.1
	c0.8,0.3,1.6,0.4,2.5,0.4c1.5,0,2.2-0.5,2.2-1.4c0-0.2,0-0.4-0.1-0.5s-0.2-0.3-0.4-0.5c-0.2-0.1-0.5-0.3-0.9-0.4s-0.8-0.3-1.4-0.5
	c-1.5-0.4-2.5-1-3.2-1.7c-0.7-0.7-1-1.6-1-2.6c0-1.4,0.5-2.4,1.5-3.1c1-0.7,2.4-1.1,4.3-1.1c0.9,0,1.7,0.1,2.5,0.2
	c0.8,0.2,1.5,0.4,2.2,0.7l-0.3,3c-0.6-0.3-1.2-0.5-1.9-0.7c-0.7-0.2-1.4-0.3-2.1-0.3c-0.7,0-1.3,0.1-1.6,0.3
	c-0.3,0.2-0.5,0.5-0.5,0.8c0,0.4,0.2,0.7,0.5,1c0.4,0.3,1.1,0.6,2.1,0.9c0.8,0.3,1.5,0.5,2.1,0.8c0.6,0.3,1,0.6,1.3,1
	s0.6,0.8,0.7,1.2c0.1,0.4,0.2,0.9,0.2,1.3c0,1.5-0.5,2.6-1.5,3.3C174.8,23.1,173.4,23.5,171.4,23.5z"/>
<path class="st0" d="M66.9,37.7c-0.1-1.1-0.4-2.1-1-2.7c-0.6-0.7-1.4-1-2.5-1s-1.9,0.3-2.5,1s-0.9,1.6-1,2.7H66.9z M59.9,39.4
	c0.1,1.2,0.5,2.1,1.2,2.8c0.7,0.7,1.7,1,2.9,1c0.7,0,1.4-0.1,2-0.2c0.6-0.2,1.2-0.5,1.7-0.9L68,44c-0.5,0.3-1.1,0.6-1.8,0.7
	C65.5,44.9,64.8,45,64,45c-1,0-1.9-0.2-2.7-0.5s-1.4-0.8-1.9-1.4c-0.5-0.6-0.9-1.2-1.2-2c-0.3-0.8-0.4-1.6-0.4-2.5
	c0-1,0.1-1.8,0.4-2.6c0.3-0.8,0.6-1.4,1.1-2c0.5-0.6,1.1-1,1.7-1.3c0.7-0.3,1.4-0.5,2.3-0.5c0.9,0,1.7,0.2,2.4,0.5
	c0.7,0.3,1.3,0.8,1.7,1.3c0.5,0.6,0.8,1.3,1.1,2.1c0.2,0.8,0.4,1.7,0.4,2.6c0,0.1,0,0.2,0,0.4c0,0.1,0,0.2,0,0.4L59.9,39.4
	L59.9,39.4z"/>
<path class="st0" d="M76.5,33.9c-0.7,0-1.3,0.1-1.9,0.4c-0.6,0.3-1,0.7-1.4,1.1v9.2h-2V32.5h2v1c0.4-0.4,0.9-0.7,1.5-0.9
	c0.6-0.2,1.3-0.3,2-0.3c1.6,0,2.8,0.5,3.7,1.4c0.9,0.9,1.4,2.3,1.4,4.2v6.9h-2v-7c0-1.3-0.3-2.3-0.8-2.9
	C78.5,34.2,77.6,33.9,76.5,33.9z"/>
<path class="st0" d="M93.2,35.4c-0.4-0.5-0.8-0.9-1.4-1.1c-0.6-0.3-1.2-0.4-1.9-0.4c-0.5,0-1,0.1-1.5,0.3c-0.5,0.2-0.8,0.5-1.2,0.9
	s-0.6,0.8-0.8,1.4c-0.2,0.6-0.3,1.2-0.3,2c0,0.7,0.1,1.4,0.3,2c0.2,0.6,0.4,1,0.8,1.4c0.3,0.4,0.7,0.7,1.2,0.9
	c0.5,0.2,0.9,0.3,1.5,0.3c0.7,0,1.3-0.1,1.9-0.4c0.6-0.3,1-0.6,1.4-1.2V35.4z M93.2,32.5h2v11.3c0,2-0.5,3.4-1.4,4.3
	c-0.9,0.9-2.3,1.3-4.3,1.3c-1.5,0-2.9-0.3-4.1-1l0.1-2c0.6,0.4,1.3,0.7,1.9,0.9c0.7,0.2,1.4,0.3,2.1,0.3c1.2,0,2.1-0.3,2.7-0.8
	c0.6-0.5,0.9-1.5,0.9-2.8v-0.6c-0.4,0.4-0.9,0.7-1.5,0.9c-0.6,0.2-1.2,0.3-2,0.3c-0.8,0-1.5-0.1-2.1-0.4c-0.7-0.3-1.3-0.7-1.8-1.2
	c-0.5-0.5-0.9-1.2-1.2-2c-0.3-0.8-0.4-1.7-0.4-2.6c0-1,0.1-1.8,0.4-2.6c0.3-0.8,0.7-1.4,1.2-2c0.5-0.5,1.1-1,1.8-1.2
	c0.7-0.3,1.4-0.4,2.1-0.4c0.7,0,1.4,0.1,2,0.3c0.6,0.2,1.1,0.5,1.5,0.9L93.2,32.5L93.2,32.5z"/>
<rect x="98.3" y="27.4" class="st0" width="2" height="17.3"/>
<path class="st0" d="M107.5,43.2c0.8,0,1.4-0.1,2.1-0.4c0.6-0.2,1.1-0.6,1.5-1.1v-3h-3c-1.2,0-2,0.2-2.6,0.6s-0.8,1-0.8,1.7
	c0,0.8,0.3,1.3,0.8,1.7C105.9,43.1,106.6,43.2,107.5,43.2z M107.3,45c-0.7,0-1.3-0.1-1.9-0.2c-0.6-0.2-1.1-0.4-1.5-0.7
	c-0.4-0.3-0.8-0.7-1-1.2c-0.2-0.5-0.4-1-0.4-1.7c0-1.2,0.5-2.2,1.4-3c0.9-0.7,2.3-1.1,4-1.1h3.1v-0.8c0-0.8-0.2-1.4-0.7-1.8
	c-0.5-0.3-1.3-0.5-2.4-0.5c-0.7,0-1.4,0.1-2.1,0.2c-0.7,0.2-1.4,0.4-1.9,0.7l-0.2-1.8c0.6-0.3,1.2-0.5,2-0.7
	c0.7-0.2,1.5-0.3,2.3-0.3c0.8,0,1.5,0.1,2.2,0.2c0.6,0.2,1.2,0.4,1.6,0.8c0.4,0.3,0.8,0.8,1,1.4s0.3,1.3,0.3,2.1v8h-2v-1
	c-0.4,0.4-1,0.7-1.6,0.9C108.7,44.9,108,45,107.3,45z"/>
<path class="st0" d="M121.1,33.9c-0.7,0-1.3,0.1-1.9,0.4c-0.6,0.3-1,0.7-1.4,1.1v9.2h-2V32.5h2v1c0.4-0.4,0.9-0.7,1.5-0.9
	c0.6-0.2,1.3-0.3,2-0.3c1.6,0,2.8,0.5,3.7,1.4c0.9,0.9,1.4,2.3,1.4,4.2v6.9h-2v-7c0-1.3-0.3-2.3-0.8-2.9
	C123.1,34.2,122.2,33.9,121.1,33.9z"/>
<path class="st0" d="M137.8,35.4c-0.4-0.5-0.8-0.9-1.4-1.1c-0.6-0.3-1.2-0.4-1.8-0.4c-0.5,0-1.1,0.1-1.5,0.3
	c-0.5,0.2-0.9,0.5-1.2,0.9c-0.3,0.4-0.6,0.9-0.8,1.5c-0.2,0.6-0.3,1.2-0.3,2s0.1,1.4,0.3,2c0.2,0.6,0.5,1.1,0.8,1.5
	c0.3,0.4,0.8,0.7,1.2,0.9c0.5,0.2,1,0.3,1.5,0.3c0.7,0,1.3-0.1,1.8-0.4c0.6-0.3,1-0.6,1.4-1.1V35.4z M137.8,43.8
	c-0.4,0.4-0.9,0.7-1.5,0.9c-0.6,0.2-1.2,0.3-1.9,0.3c-0.8,0-1.5-0.1-2.2-0.4c-0.7-0.3-1.3-0.7-1.8-1.3s-0.9-1.2-1.2-2
	c-0.3-0.8-0.4-1.7-0.4-2.7s0.1-1.9,0.4-2.7c0.3-0.8,0.7-1.5,1.2-2s1.1-1,1.8-1.3c0.7-0.3,1.4-0.4,2.2-0.4c0.7,0,1.3,0.1,1.9,0.3
	c0.6,0.2,1.1,0.5,1.5,0.9v-6h2v17.3h-2V43.8z"/>
</svg>
